<?xml version="1.0" encoding="UTF-8" standalone="no"?>
<svg
   xmlns:dc="http://purl.org/dc/elements/1.1/"
   xmlns:cc="http://creativecommons.org/ns#"
   xmlns:rdf="http://www.w3.org/1999/02/22-rdf-syntax-ns#"
   xmlns:svg="http://www.w3.org/2000/svg"
   xmlns="http://www.w3.org/2000/svg"
   height="1024"
   width="1024"
   id="svg102"
   version="1.1"
   viewBox="0 0 1024 1024">
  <metadata
     id="metadata108">
    <rdf:RDF>
      <cc:Work
         rdf:about="">
        <dc:format>image/svg+xml</dc:format>
        <dc:type
           rdf:resource="http://purl.org/dc/dcmitype/StillImage" />
        <dc:title></dc:title>
      </cc:Work>
    </rdf:RDF>
  </metadata>
  <defs
     id="defs106" />
  <path
     style="stroke-width:37.68073654;fill:#ff0000"
     d="m 287.25078,723.97424 -55.88054,56.70951 C 126.24099,697.74844 59.546064,576.71792 59.546064,441.51943 c 0,-135.19847 66.694926,-256.229 171.861846,-339.12663 l 55.88054,56.67184 c -87.68309,69.14412 -143.37522,170.01548 -143.37522,282.45479 0,112.43932 55.69213,213.31066 143.33755,282.45481 z M 624.75713,441.51943 c 0,-62.43698 -50.64292,-113.04219 -113.04221,-113.04219 -62.3993,0 -113.04221,50.60521 -113.04221,113.04219 0,49.13568 31.57645,90.54681 75.36145,106.10896 v 383.74064 h 75.36149 V 547.62839 c 43.78503,-15.56215 75.36148,-56.97328 75.36148,-106.10896 z m -312.07187,0 c 0,-67.4862 33.42282,-128.03914 85.98745,-169.48795 L 342.86755,215.43502 C 272.78136,270.71266 228.3181,351.3871 228.3181,441.51943 c 0,90.13234 44.46326,170.80679 114.54945,226.08443 l 55.80516,-56.59648 C 346.0704,569.55858 312.68526,509.00563 312.68526,441.51943 Z M 792.0596,102.3928 736.17906,159.06464 c 87.64541,69.14412 143.33753,170.01548 143.33753,282.45479 0,112.43932 -55.69212,213.31066 -143.33753,282.45481 l 55.88054,56.70951 c 105.12925,-82.93531 171.82417,-203.96583 171.82417,-339.16432 0,-135.19847 -66.69492,-256.229 -171.82417,-339.12663 z m -111.49731,113.04222 -55.80516,56.59646 c 52.60231,41.48649 85.98744,102.00175 85.98744,169.48795 0,67.4862 -33.38513,128.03915 -85.98744,169.48795 l 55.80516,56.59648 c 70.08618,-55.27764 114.54946,-135.95209 114.54946,-226.08443 0,-90.13233 -44.42559,-170.80677 -114.54946,-226.08441 z"
     id="path110" />
</svg>
